<svg width="319" height="98" viewBox="0 0 319 98" fill="none" xmlns="http://www.w3.org/2000/svg">
<g clip-path="url(#clip0_1555_2)">
<path d="M13.2806 14H26.3881L49.8864 54.614L42.0537 68.151L12 16.2108L13.2806 14Z" fill="#FF6413"/>
<path d="M51.2243 83.9995L44.6689 72.6734L68.1673 32.0625H83.836L53.7792 83.9995H51.2243Z" fill="#FF6413"/>
<path d="M93.0002 16.2167L86.4449 27.5428H39.4451L31.6123 14.0059H91.7228L93.0002 16.2167Z" fill="#FF6413"/>
</g>
<path d="M118.92 37.6C122.44 37.6 125.2 38.4933 127.2 40.28C129.227 42.04 130.24 44.4667 130.24 47.56C130.24 50.6 129.227 53 127.2 54.76C125.2 56.4933 122.44 57.36 118.92 57.36H116.12V66H108.12V37.6H118.92ZM118.92 51.44C120.28 51.44 121.347 51.1067 122.12 50.44C122.893 49.7467 123.28 48.7867 123.28 47.56C123.28 46.3333 122.893 45.3867 122.12 44.72C121.347 44.0267 120.28 43.68 118.92 43.68H116.12V51.44H118.92ZM144.818 37.6C148.338 37.6 151.098 38.4933 153.098 40.28C155.125 42.04 156.138 44.4667 156.138 47.56C156.138 50.6 155.125 53 153.098 54.76C151.098 56.4933 148.338 57.36 144.818 57.36H142.018V66H134.018V37.6H144.818ZM144.818 51.44C146.178 51.44 147.245 51.1067 148.018 50.44C148.792 49.7467 149.178 48.7867 149.178 47.56C149.178 46.3333 148.792 45.3867 148.018 44.72C147.245 44.0267 146.178 43.68 144.818 43.68H142.018V51.44H144.818ZM179.077 59.92V66H159.917V37.6H167.917V59.92H179.077ZM203.607 60.08V66H182.847V37.6H203.207V43.52H190.847V49.12H202.407V54.48H190.847V60.08H203.607ZM233.276 66.4C230.129 66.4 227.436 65.8267 225.196 64.68C222.956 63.5067 221.236 61.8267 220.036 59.64C218.863 57.4533 218.276 54.84 218.276 51.8C218.276 48.76 218.863 46.1467 220.036 43.96C221.236 41.7733 222.956 40.1067 225.196 38.96C227.436 37.7867 230.116 37.2 233.236 37.2C234.916 37.2 236.503 37.3733 237.996 37.72C239.516 38.04 240.743 38.4933 241.676 39.08L239.916 44.72C239.089 44.2933 238.169 43.96 237.156 43.72C236.169 43.48 235.196 43.36 234.236 43.36C231.756 43.36 229.823 44.0933 228.436 45.56C227.049 47.0267 226.356 49.0933 226.356 51.76C226.356 54.4267 227.049 56.5067 228.436 58C229.823 59.4933 231.756 60.24 234.236 60.24C236.023 60.24 237.916 59.7733 239.916 58.84L241.676 64.48C240.743 65.0667 239.516 65.5333 237.996 65.88C236.503 66.2267 234.929 66.4 233.276 66.4ZM270.03 60.6V66H267.71C266.217 66 265.044 65.8933 264.19 65.68C263.364 65.4667 262.63 65.08 261.99 64.52C261.35 63.96 260.67 63.1067 259.95 61.96L256.55 56.64C256.177 56.08 255.844 55.72 255.55 55.56C255.284 55.3733 254.897 55.28 254.39 55.28H253.19V66H245.19V37.6H258.03C261.177 37.6 263.644 38.3467 265.43 39.84C267.244 41.3333 268.15 43.3733 268.15 45.96C268.15 47.9333 267.644 49.5733 266.63 50.88C265.644 52.1867 264.204 53.0933 262.31 53.6C262.817 53.92 263.377 54.5333 263.99 55.44L265.87 58.16C266.564 59.2 267.11 59.8667 267.51 60.16C267.91 60.4533 268.497 60.6 269.27 60.6H270.03ZM256.75 50.16C258.004 50.16 258.977 49.8533 259.67 49.24C260.364 48.6267 260.71 47.7733 260.71 46.68C260.71 45.5867 260.364 44.7333 259.67 44.12C258.977 43.5067 258.004 43.2 256.75 43.2H253.19V50.16H256.75ZM303.547 37.6V66H295.947V49.56L290.907 60.48H286.307L281.267 49.56V66H273.667V37.6H281.667L288.627 51.72L295.547 37.6H303.547Z" fill="black"/>
<defs>
<clipPath id="clip0_1555_2">
<rect width="81" height="70" fill="white" transform="translate(12 14)"/>
</clipPath>
</defs>
</svg>
